<?xml version="1.0" encoding="UTF-8"?>
<svg version="1.1" xmlns="http://www.w3.org/2000/svg" width="500" height="500">
<path d="M0 0 C165 0 330 0 500 0 C500 165 500 330 500 500 C335 500 170 500 0 500 C0 335 0 170 0 0 Z " fill="#000000" transform="translate(0,0)"/>
<path d="M0 0 C1.65 0 3.3 0 5 0 C5.37697021 0.79994385 5.75394043 1.5998877 6.14233398 2.42407227 C15.99726949 23.80208 15.99726949 23.80208 28 44 C28.53109375 44.78632813 29.0621875 45.57265625 29.609375 46.3828125 C37.07594017 56.1041325 51.33951534 62.39781034 63.125 64.578125 C81.10512388 66.53563849 97.32484364 65.64120496 113 56 C114.32679831 55.32042038 115.65842361 54.64991923 117 54 C117 55.98 117 57.96 117 60 C120.41391482 60.87923762 123.48079954 61.40764932 127 61 C129.15076979 59.13401593 130.64909263 57.11401106 132.34765625 54.8359375 C134 53 134 53 137.625 52.1875 C141.77372676 53.18626755 143.38792142 54.67553635 146 58 C146 58.66 146 59.32 146 60 C115.81212859 76.63763367 79.24456681 77.47585181 46 71 C45.24009766 70.86078125 44.48019531 70.7215625 43.69726562 70.578125 C34.71313319 68.91239744 26.0786288 66.53140859 17.4375 63.5625 C16.62853271 63.28631836 15.81956543 63.01013672 14.98608398 62.72558594 C9.15102431 60.63660205 4.55823682 58.08790934 -1 55 C-0.67 36.85 -0.34 18.7 0 0 Z " fill="#0093AE" transform="translate(159,312)"/>
<path d="M0 0 C2.31 0 4.62 0 7 0 C7.01417969 0.88042969 7.02835937 1.76085937 7.04296875 2.66796875 C7.09066406 3.82941406 7.13835937 4.99085938 7.1875 6.1875 C7.23970703 7.91033203 7.23970703 7.91033203 7.29296875 9.66796875 C8.20275017 13.95550219 9.60298904 15.27327174 13 18 C16.46504717 18.77419007 16.46504717 18.77419007 20.26953125 18.70703125 C21.29103523 18.72971321 21.29103523 18.72971321 22.33317566 18.75285339 C24.49329063 18.79560078 26.65200493 18.80455435 28.8125 18.8125 C30.28324002 18.83565489 31.75394698 18.86102231 33.22460938 18.88867188 C36.81637971 18.9513916 40.40768404 18.98383125 44 19 C40.51242839 30.21297468 35.27086016 39.10780915 24.88671875 45.25 C22.94894862 46.24260542 21.00136174 47.14412608 19 48 C17.700625 48.5878125 17.700625 48.5878125 16.375 49.1875 C6.64510925 52.51614684 -3.45368874 51.41121522 -13 48 C-16.24479931 46.27340954 -19.10393505 44.25442182 -22 42 C-23.051875 41.2575 -24.10375 40.515 -25.1875 39.75 C-30.19870569 34.85015444 -33.69481515 28.61109616 -36 22 C-36 21.01 -36 20.02 -36 19 C-35.14768799 18.98541748 -34.29537598 18.97083496 -33.41723633 18.95581055 C-30.23928825 18.89456715 -27.06197454 18.82037971 -23.88452148 18.73754883 C-22.51224042 18.70440194 -21.13982638 18.67633829 -19.76733398 18.65356445 C-17.78862234 18.61983234 -15.81028624 18.5659851 -13.83203125 18.51171875 C-12.64327393 18.48553467 -11.4545166 18.45935059 -10.22973633 18.43237305 C-6.44610731 17.92584897 -3.72211946 16.72211946 -1 14 C-0.76472227 11.65012738 -0.58613583 9.29443961 -0.4375 6.9375 C-0.35371094 5.64714844 -0.26992188 4.35679687 -0.18359375 3.02734375 C-0.09271484 1.52880859 -0.09271484 1.52880859 0 0 Z " fill="#EBCCB0" transform="translate(310,147)"/>
<path d="M0 0 C4.30084136 1.78484916 7.87349874 4.08823576 11.34375 7.22265625 C10.22696734 10.05756609 9.06211556 12.83098664 7.78125 15.59765625 C5.31830158 21.80856967 5.17723076 28.00870045 5.21875 34.59765625 C5.22068359 35.34136475 5.22261719 36.08507324 5.22460938 36.85131836 C5.26541085 42.03820538 5.59634323 47.08423469 6.34375 52.22265625 C-1.57947632 56.07255364 -8.68462934 57.83404595 -17.36328125 55.4921875 C-26.11121324 52.27892912 -31.32451583 47.46112425 -35.65625 39.22265625 C-37.83825497 34.33912132 -38.73585738 29.4888327 -37.65625 24.22265625 C-35.71661526 20.24836144 -33.30029518 16.75879797 -30.65625 13.22265625 C-30.16640625 12.56007812 -29.6765625 11.8975 -29.171875 11.21484375 C-27.75259457 9.43675646 -26.26478357 7.83118982 -24.65625 6.22265625 C-24.02332031 5.56910156 -23.39039063 4.91554687 -22.73828125 4.2421875 C-15.94602677 -1.95620866 -8.73532878 -2.55636828 0 0 Z " fill="#0095AF" transform="translate(205.65625,126.77734375)"/>
<path d="M0 0 C1.32 4.62 2.64 9.24 4 14 C5.13179688 13.4225 6.26359375 12.845 7.4296875 12.25 C8.91135207 11.49979009 10.39312873 10.74980153 11.875 10 C12.99455078 9.42765625 12.99455078 9.42765625 14.13671875 8.84375 C14.85214844 8.4828125 15.56757813 8.121875 16.3046875 7.75 C16.96452637 7.41484375 17.62436523 7.0796875 18.30419922 6.734375 C20 6 20 6 22 6 C22.99 10.29 23.98 14.58 25 19 C30.94 18.67 36.88 18.34 43 18 C41.89540123 25.06943215 39.9416862 29.75653143 35 35 C31.46505776 37.35662816 29.92097489 37.27430736 25.7277832 37.32568359 C24.4324617 37.34424408 23.1371402 37.36280457 21.80256653 37.38192749 C20.38531399 37.38943864 18.96804926 37.3948903 17.55078125 37.3984375 C16.47766221 37.40160414 16.47766221 37.40160414 15.382864 37.40483475 C11.59340072 37.41173768 7.80430508 37.40234134 4.01489258 37.3828125 C0.88775889 37.3700593 -2.2363094 37.39108474 -5.36303711 37.44238281 C-9.14792562 37.50434431 -12.92862768 37.50717266 -16.71378517 37.46858597 C-18.15023966 37.46352982 -19.58692232 37.47868662 -21.02292442 37.51508713 C-32.12189431 37.77187493 -32.12189431 37.77187493 -36.74893188 33.40655518 C-42.15601407 25.77927733 -42.15601407 25.77927733 -41.75761414 21.23568726 C-39.37468281 14.20375774 -32.96903629 8.16865895 -27 4 C-25.68 3.67 -24.36 3.34 -23 3 C-23 5.97 -23 8.94 -23 12 C-22.37432129 11.63648437 -21.74864258 11.27296875 -21.10400391 10.8984375 C-18.28022923 9.26116246 -15.45268598 7.63050984 -12.625 6 C-11.64015625 5.42765625 -10.6553125 4.8553125 -9.640625 4.265625 C-8.69960938 3.72421875 -7.75859375 3.1828125 -6.7890625 2.625 C-5.91975098 2.12226562 -5.05043945 1.61953125 -4.15478516 1.1015625 C-2 0 -2 0 0 0 Z " fill="#AE7644" transform="translate(318,73)"/>
<path d="M0 0 C7.70596645 4.32945902 13.31066936 11.47231179 15.80859375 19.9375 C16.91432253 30.4623999 15.20570126 37.90766138 8.68359375 46.1875 C3.02175527 52.15990346 -2.73398623 55.12009705 -11.04882812 55.36914062 C-20.26192037 55.39589694 -20.26192037 55.39589694 -24.19140625 52.9375 C-23.90265625 52.32648438 -23.61390625 51.71546875 -23.31640625 51.0859375 C-20.38300594 43.8542909 -19.80606351 37.4406731 -19.81640625 29.6875 C-19.81511719 28.75341309 -19.81382812 27.81932617 -19.8125 26.85693359 C-19.92575186 19.61524947 -20.76166176 13.01370297 -24.31640625 6.5625 C-26.19140625 3.12728102 -26.19140625 3.12728102 -26.19140625 0.9375 C-18.68622283 -2.7776407 -7.8480025 -2.61279887 0 0 Z " fill="#0094AF" transform="translate(309.19140625,301.0625)"/>
<path d="M0 0 C5.094375 -0.020625 10.18875 -0.04125 15.4375 -0.0625 C17.04681396 -0.071604 18.65612793 -0.08070801 20.31420898 -0.09008789 C21.57048096 -0.09258545 22.82675293 -0.09508301 24.12109375 -0.09765625 C26.06133423 -0.10551147 26.06133423 -0.10551147 28.04077148 -0.11352539 C31 0 31 0 32 1 C32.09830562 2.49340194 32.12798451 3.99140377 32.12939453 5.48803711 C32.13254669 6.44250229 32.13569885 7.39696747 32.13894653 8.38035583 C32.1369223 9.41886185 32.13489807 10.45736786 32.1328125 11.52734375 C32.13376923 12.58659561 32.13472595 13.64584747 32.13571167 14.73719788 C32.1363937 16.98259541 32.13453784 19.2279949 32.13037109 21.47338867 C32.12502845 24.919153 32.13031262 28.36478666 32.13671875 31.81054688 C32.13605787 33.98697946 32.1347765 36.16341195 32.1328125 38.33984375 C32.13483673 39.37632553 32.13686096 40.41280731 32.13894653 41.48069763 C32.13421829 42.91712364 32.13421829 42.91712364 32.12939453 44.38256836 C32.12859894 45.22782578 32.12780334 46.07308319 32.12698364 46.94395447 C32 49 32 49 31 51 C20.77 51 10.54 51 0 51 C0 34.17 0 17.34 0 0 Z " fill="#DADDE1" transform="translate(387,102)"/>
<path d="M0 0 C2.69961001 2.85535674 2.43649362 5.26163863 2.578125 9.12109375 C2.63484375 10.39339844 2.6915625 11.66570312 2.75 12.9765625 C2.78867188 14.44029297 2.78867188 14.44029297 2.828125 15.93359375 C6.42925317 17.47095223 6.42925317 17.47095223 10.265625 18.05859375 C13.28591176 16.7326142 13.9005511 15.57256392 15.703125 12.87109375 C17.92736078 9.73099618 18.43646329 9.05465282 22.265625 7.87109375 C27.65714297 9.47909034 29.83853558 13.3537972 32.828125 17.93359375 C35.798125 17.27359375 38.768125 16.61359375 41.828125 15.93359375 C42.158125 12.30359375 42.488125 8.67359375 42.828125 4.93359375 C45.21485169 7.89642688 47.5634621 10.87629884 49.828125 13.93359375 C48.178125 13.93359375 46.528125 13.93359375 44.828125 13.93359375 C43.838125 16.90359375 42.848125 19.87359375 41.828125 22.93359375 C38.578125 23.62109375 38.578125 23.62109375 34.828125 23.93359375 C32.640625 22.43359375 32.640625 22.43359375 30.828125 20.93359375 C28.62011972 21.15076727 28.62011972 21.15076727 26.828125 21.93359375 C25.5983338 25.00807176 25.88751014 26.11504835 26.953125 29.37109375 C27.828125 32.93359375 27.828125 32.93359375 27.015625 35.80859375 C23.73253048 38.99788557 20.2616472 38.8313532 15.828125 38.93359375 C15.7716141 42.3021189 15.7716141 42.3021189 16.828125 45.93359375 C19.0512784 47.78800295 21.15642837 48.71918619 23.828125 49.93359375 C23.828125 51.91359375 23.828125 53.89359375 23.828125 55.93359375 C20.42323868 55.93359375 19.20068011 55.18865646 16.265625 53.55859375 C11.85038856 51.24431169 7.99560155 50.19860759 3.0546875 49.68359375 C-1.72123754 48.07486111 -3.96067021 42.86925077 -6.171875 38.62109375 C-12.2881901 25.93827791 -13.8369154 13.82554875 -13.171875 -0.06640625 C-8.7134218 -1.27879265 -4.29441588 -2.10858909 0 0 Z " fill="#0093AE" transform="translate(174.171875,182.06640625)"/>
<path d="M0 0 C4.89988583 4.39947196 7.7754414 8.85617959 8.25 15.5 C7.94506935 19.76902906 7.61197162 22.50844072 4.37890625 25.5 C3.15795379 26.51534508 1.917591 27.50794417 0.65625 28.47265625 C-1.17674511 30.16298901 -2.0215057 31.72500074 -3 34 C-3.66 33.67 -4.32 33.34 -5 33 C-8.93509243 31.68830252 -11.85518004 31.72820853 -16 32 C-16.66 32.66 -17.32 33.32 -18 34 C-21.223333 34.07325757 -23.22494056 33.69828468 -25.65625 31.5078125 C-30.94555779 25.46659331 -32.53264019 21.13188108 -32.375 13.04296875 C-31.70163087 7.57885879 -29.30269987 4.05598203 -25.25 0.4375 C-17.20537731 -5.66531721 -8.50127455 -5.28624708 0 0 Z " fill="#0094AF" transform="translate(235,213)"/>
<path d="M0 0 C3.4841665 0.49937807 6.11676711 0.42393322 9.5625 -0.4375 C9.8925 -0.1075 10.2225 0.2225 10.5625 0.5625 C14.99308151 0.80480877 14.99308151 0.80480877 19.30859375 -0.00390625 C22.7076937 -0.65780589 25.9309221 -0.01458794 29.3125 0.5 C30.00988281 0.59990234 30.70726562 0.69980469 31.42578125 0.80273438 C33.13901726 1.04915873 34.85090725 1.30490955 36.5625 1.5625 C36.5625 2.8825 36.5625 4.2025 36.5625 5.5625 C37.01625 4.923125 37.47 4.28375 37.9375 3.625 C41.81263836 0.58024843 45.7547647 0.74600135 50.5625 0.5625 C51.04759793 1.93541868 51.52525513 3.31096703 52 4.6875 C52.26683594 5.45320313 52.53367187 6.21890625 52.80859375 7.0078125 C54.81289135 13.79957743 54.68120207 20.41656409 54.625 27.4375 C54.62048828 28.50742187 54.61597656 29.57734375 54.61132812 30.6796875 C54.59959749 33.30734986 54.58318228 35.93489538 54.5625 38.5625 C45.1905 38.5845 45.1905 38.5845 42.5625 37.5625 C40.31974954 34.34789101 39.50927199 32.43189079 39.75 28.5 C40.5625 25.5625 40.5625 25.5625 41.6875 22.9375 C42.68833407 20.22095037 42.70272366 19.19378536 41.5625 16.5625 C40.41603452 14.66588257 40.41603452 14.66588257 38.5625 13.5625 C35.04318444 13.65761664 33.5870921 14.54293811 30.8125 16.75 C26.86560514 18.9511529 24.90294306 18.97774826 20.62109375 17.80078125 C17.16950105 15.72458602 16.34649133 12.67063385 15.12109375 8.97265625 C14.5625 6.5625 14.5625 6.5625 14.5625 3.5625 C11.2625 3.8925 7.9625 4.2225 4.5625 4.5625 C4.37816406 5.40554688 4.19382812 6.24859375 4.00390625 7.1171875 C1.73978158 15.67054736 1.73978158 15.67054736 -1.35546875 18.015625 C-5.20664688 19.18801905 -7.55658903 18.95456051 -11.24609375 17.3125 C-13.74484469 15.83805973 -16.10517178 14.28618307 -18.4375 12.5625 C-6.87689756 -1.15608157 -6.87689756 -1.15608157 0 0 Z " fill="#0093AD" transform="translate(287.4375,276.4375)"/>
<path d="M0 0 C1.73253777 -0.0238678 1.73253777 -0.0238678 3.50007629 -0.04821777 C5.35955147 -0.0485199 5.35955147 -0.0485199 7.2565918 -0.04882812 C8.54011032 -0.05644165 9.82362885 -0.06405518 11.14604187 -0.07189941 C13.86030828 -0.08532264 16.57428398 -0.08692375 19.28857422 -0.08105469 C22.74873863 -0.07517109 26.20749377 -0.10570097 29.66738605 -0.14617157 C32.98882999 -0.17841314 36.30999222 -0.17393214 39.6315918 -0.17382812 C41.48195793 -0.19842102 41.48195793 -0.19842102 43.3697052 -0.22351074 C50.52239807 -0.16635328 55.70708412 0.50527575 61.14331055 5.41992188 C63.44358989 8.43903851 64.14331055 9.62794042 64.14331055 13.41992188 C63.2304126 13.42403076 62.31751465 13.42813965 61.37695312 13.43237305 C57.97496276 13.4594159 54.57475994 13.50856049 51.17333984 13.57250977 C49.70405108 13.5956418 48.23459763 13.61007428 46.76513672 13.61547852 C44.6466671 13.62480466 42.53076989 13.66586314 40.4128418 13.71289062 C39.14029541 13.72860107 37.86774902 13.74431152 36.55664062 13.76049805 C32.27547852 14.587579 30.79248063 16.01552082 28.14331055 19.41992188 C27.25803946 23.10433691 27.25803946 23.10433691 27.14331055 26.41992188 C24.83331055 26.41992188 22.52331055 26.41992188 20.14331055 26.41992188 C19.98862305 24.53273437 19.98862305 24.53273437 19.83081055 22.60742188 C19.5000387 19.97056461 19.32392667 18.67442641 17.76831055 16.48242188 C14.11199312 14.09175279 10.52994633 14.22880985 6.2878418 14.10351562 C5.62620529 14.08273453 4.96456879 14.06195343 4.28288269 14.0405426 C2.17396203 13.9752746 0.0649192 13.91626843 -2.04418945 13.85742188 C-3.4758426 13.81421498 -4.90748349 13.77059999 -6.33911133 13.7265625 C-9.844841 13.61961682 -13.35070731 13.51828547 -16.85668945 13.41992188 C-16.1063119 8.54246775 -14.62529805 6.6746293 -10.85668945 3.41992188 C-7.10586944 0.78115552 -4.57058542 0.0379907 0 0 Z " fill="#E9CAAF" transform="translate(289.856689453125,114.580078125)"/>
<path d="M0 0 C3.85026954 2.33200722 6.52844773 4.72768775 8.75390625 8.66796875 C10.05027573 14.13825513 8.81198739 19.00097144 6.078125 23.81640625 C2.05830867 29.43703439 -3.42889217 33.36324118 -10.24609375 34.66796875 C-23.31019178 35.72365344 -23.31019178 35.72365344 -28.24609375 31.66796875 C-29.93558989 32.27445454 -31.60246241 32.94637451 -33.24609375 33.66796875 C-36.05859375 33.29296875 -36.05859375 33.29296875 -38.24609375 32.66796875 C-37.97316274 26.52702095 -37.2732954 22.42738888 -33.24609375 17.66796875 C-32.58609375 17.66796875 -31.92609375 17.66796875 -31.24609375 17.66796875 C-30.25609375 20.30796875 -29.26609375 22.94796875 -28.24609375 25.66796875 C-24.20805753 21.23137311 -20.2796412 16.78609579 -16.68359375 11.98046875 C-13.5927843 7.92111072 -10.23316454 4.84135162 -6.24609375 1.66796875 C-14.35366689 0.97435508 -20.46450797 1.95669096 -27.24609375 6.66796875 C-29.53623028 10.10317355 -29.42452348 11.65329975 -29.24609375 15.66796875 C-29.90609375 15.66796875 -30.56609375 15.66796875 -31.24609375 15.66796875 C-32.6904023 12.77935166 -32.62297881 10.87149174 -32.24609375 7.66796875 C-25.12238827 -1.98350319 -10.80338657 -4.43315863 0 0 Z " fill="#040404" transform="translate(186.24609375,239.33203125)"/>
<path d="M0 0 C6.27 0 12.54 0 19 0 C19 16.83 19 33.66 19 51 C16.69 51 14.38 51 12 51 C11.319375 50.071875 11.319375 50.071875 10.625 49.125 C8.50183353 45.87611616 8.50183353 45.87611616 0 45 C0 30.15 0 15.3 0 0 Z " fill="#DFE2E6" transform="translate(425,102)"/>
<path d="M0 0 C4.75 0.875 4.75 0.875 7 2 C7.33 2.99 7.66 3.98 8 5 C10.31 5.33 12.62 5.66 15 6 C15 7.98 15 9.96 15 12 C17.475 12.495 17.475 12.495 20 13 C20.33 12.01 20.66 11.02 21 10 C23.97 10.495 23.97 10.495 27 11 C27 11.66 27 12.32 27 13 C27.96292969 13.0721875 28.92585938 13.144375 29.91796875 13.21875 C34.87083299 13.93572658 38.94336445 16.1563406 43.3125 18.5 C44.56836914 19.1662439 44.56836914 19.1662439 45.84960938 19.84594727 C52.46295953 23.46800258 57.79253814 27.51196369 63 33 C63.99888455 34.00111421 64.99843628 35.00156617 66 36 C64.56879256 36.55808089 63.12969645 37.09596462 61.6875 37.625 C60.88699219 37.92664063 60.08648437 38.22828125 59.26171875 38.5390625 C58.51535156 38.69117188 57.76898438 38.84328125 57 39 C56.01 38.34 55.02 37.68 54 37 C51.4745777 36.9744911 51.4745777 36.9744911 48.8125 37.375 C47.91144531 37.48585937 47.01039063 37.59671875 46.08203125 37.7109375 C45.39496094 37.80632812 44.70789063 37.90171875 44 38 C43.67 37.01 43.34 36.02 43 35 C42.154375 35.53625 41.30875 36.0725 40.4375 36.625 C36.15482358 38.33807057 34.22250055 37.60455021 30 36 C29.938125 34.948125 29.87625 33.89625 29.8125 32.8125 C28.84575542 28.27623698 27.58833167 26.85435474 24 24 C19.64108608 21.71374569 15.49468727 21.76330485 10.6875 21.875 C9.57665039 21.88853516 9.57665039 21.88853516 8.44335938 21.90234375 C6.62876533 21.92575787 4.81433929 21.96162385 3 22 C5.46741391 19.35892646 7.57440916 18.20358597 11 17 C11 14.69 11 12.38 11 10 C10.30132812 9.97421875 9.60265625 9.9484375 8.8828125 9.921875 C7.97273437 9.86515625 7.06265625 9.8084375 6.125 9.75 C4.76761719 9.68039063 4.76761719 9.68039063 3.3828125 9.609375 C1 9 1 9 -0.34375 7.125 C-1.1741851 4.43597204 -0.74405696 2.67860504 0 0 Z " fill="#0093AD" transform="translate(245,211)"/>
<path d="M0 0 C1.87171875 -0.00386719 1.87171875 -0.00386719 3.78125 -0.0078125 C5.74578125 0.00378906 5.74578125 0.00378906 7.75 0.015625 C9.0596875 0.00789062 10.369375 0.00015625 11.71875 -0.0078125 C12.9665625 -0.00523437 14.214375 -0.00265625 15.5 0 C16.64984375 0.00225586 17.7996875 0.00451172 18.984375 0.00683594 C21.75 0.265625 21.75 0.265625 23.75 2.265625 C24.00878906 4.48046875 24.00878906 4.48046875 24.015625 7.203125 C24.01949219 8.66878906 24.01949219 8.66878906 24.0234375 10.1640625 C24.01570313 11.18757812 24.00796875 12.21109375 24 13.265625 C24.01160156 14.80089844 24.01160156 14.80089844 24.0234375 16.3671875 C24.02085937 17.34429687 24.01828125 18.32140625 24.015625 19.328125 C24.01336914 20.22660156 24.01111328 21.12507813 24.00878906 22.05078125 C23.75 24.265625 23.75 24.265625 21.75 26.265625 C18.984375 26.52441406 18.984375 26.52441406 15.5 26.53125 C13.62828125 26.53511719 13.62828125 26.53511719 11.71875 26.5390625 C9.75421875 26.52746094 9.75421875 26.52746094 7.75 26.515625 C6.4403125 26.52335937 5.130625 26.53109375 3.78125 26.5390625 C2.5334375 26.53648437 1.285625 26.53390625 0 26.53125 C-1.72476562 26.52786621 -1.72476562 26.52786621 -3.484375 26.52441406 C-6.25 26.265625 -6.25 26.265625 -8.25 24.265625 C-8.50878906 22.05078125 -8.50878906 22.05078125 -8.515625 19.328125 C-8.51820313 18.35101563 -8.52078125 17.37390625 -8.5234375 16.3671875 C-8.51570313 15.34367188 -8.50796875 14.32015625 -8.5 13.265625 C-8.50773437 12.24210938 -8.51546875 11.21859375 -8.5234375 10.1640625 C-8.52085937 9.18695313 -8.51828125 8.20984375 -8.515625 7.203125 C-8.51336914 6.30464844 -8.51111328 5.40617188 -8.50878906 4.48046875 C-7.90977427 -0.64619371 -4.2620561 0.00836166 0 0 Z " fill="#64CDE9" transform="translate(331.25,133.734375)"/>
<path d="M0 0 C1.87171875 -0.00386719 1.87171875 -0.00386719 3.78125 -0.0078125 C5.74578125 0.00378906 5.74578125 0.00378906 7.75 0.015625 C9.0596875 0.00789062 10.369375 0.00015625 11.71875 -0.0078125 C12.9665625 -0.00523437 14.214375 -0.00265625 15.5 0 C16.64984375 0.00225586 17.7996875 0.00451172 18.984375 0.00683594 C21.75 0.265625 21.75 0.265625 23.75 2.265625 C24.00878906 4.48046875 24.00878906 4.48046875 24.015625 7.203125 C24.01949219 8.66878906 24.01949219 8.66878906 24.0234375 10.1640625 C24.01570313 11.18757812 24.00796875 12.21109375 24 13.265625 C24.01160156 14.80089844 24.01160156 14.80089844 24.0234375 16.3671875 C24.02085937 17.34429687 24.01828125 18.32140625 24.015625 19.328125 C24.01336914 20.22660156 24.01111328 21.12507813 24.00878906 22.05078125 C23.75 24.265625 23.75 24.265625 21.75 26.265625 C18.984375 26.52441406 18.984375 26.52441406 15.5 26.53125 C13.62828125 26.53511719 13.62828125 26.53511719 11.71875 26.5390625 C9.75421875 26.52746094 9.75421875 26.52746094 7.75 26.515625 C6.4403125 26.52335937 5.130625 26.53109375 3.78125 26.5390625 C2.5334375 26.53648437 1.285625 26.53390625 0 26.53125 C-1.72476562 26.52786621 -1.72476562 26.52786621 -3.484375 26.52441406 C-6.25 26.265625 -6.25 26.265625 -8.25 24.265625 C-8.50878906 22.05078125 -8.50878906 22.05078125 -8.515625 19.328125 C-8.51820313 18.35101563 -8.52078125 17.37390625 -8.5234375 16.3671875 C-8.51570313 15.34367188 -8.50796875 14.32015625 -8.5 13.265625 C-8.50773437 12.24210938 -8.51546875 11.21859375 -8.5234375 10.1640625 C-8.52085937 9.18695313 -8.51828125 8.20984375 -8.515625 7.203125 C-8.51336914 6.30464844 -8.51111328 5.40617188 -8.50878906 4.48046875 C-7.90977427 -0.64619371 -4.2620561 0.00836166 0 0 Z " fill="#64CBE8" transform="translate(280.25,133.734375)"/>
<path d="M0 0 C5.85313045 2.63202868 8.36544361 8.11854576 11 13.625 C11.31525635 14.28250244 11.6305127 14.94000488 11.95532227 15.61743164 C14.06533144 20.34767436 14.06533144 20.34767436 13.7902832 23.09399414 C12.34928195 26.56940248 8.47417228 27.45239852 5.1875 28.8125 C4.09985352 29.29879883 4.09985352 29.29879883 2.99023438 29.79492188 C-3.17683433 32.42989085 -3.17683433 32.42989085 -7 31 C-8.8515625 29.07421875 -8.8515625 29.07421875 -10.625 26.6875 C-11.21539062 25.90761719 -11.80578125 25.12773437 -12.4140625 24.32421875 C-16.16011146 18.83431942 -16.68521109 14.59515673 -16 8 C-14.69078973 4.76142722 -13.47966387 3.39743578 -10.8125 1.1875 C-7.0842943 -0.3866313 -3.92992242 -0.85661789 0 0 Z " fill="#F7D36E" transform="translate(314,204)"/>
<path d="M0 0 C18.81 0 37.62 0 57 0 C57 3.96 57 7.92 57 12 C46.44 12 35.88 12 25 12 C25 10.02 25 8.04 25 6 C23.02 6 21.04 6 19 6 C19 7.98 19 9.96 19 12 C17.02 12 15.04 12 13 12 C13 10.02 13 8.04 13 6 C10.69 6 8.38 6 6 6 C6 7.98 6 9.96 6 12 C4.02 12 2.04 12 0 12 C0 8.04 0 4.08 0 0 Z " fill="#B2DA7D" transform="translate(387,84)"/>
<path d="M0 0 C0.78375 0.04125 1.5675 0.0825 2.375 0.125 C3.78427783 4.73797775 2.83596181 7.68233924 1.3125 12.1875 C0.83843642 13.6245365 0.3658464 15.06205973 -0.10546875 16.5 C-0.48131104 17.63308594 -0.48131104 17.63308594 -0.86474609 18.7890625 C-2.148533 22.73359465 -3.32019344 26.71088111 -4.5 30.6875 C-5.00343406 32.37253698 -5.50735213 34.05742942 -6.01171875 35.7421875 C-6.27130371 36.6094043 -6.53088867 37.47662109 -6.79833984 38.37011719 C-8.29377716 43.3537305 -9.80145642 48.33359938 -11.3125 53.3125 C-11.59786621 54.25617432 -11.88323242 55.19984863 -12.17724609 56.17211914 C-13.90415603 61.85455216 -15.71426105 67.50167195 -17.625 73.125 C-19.935 73.125 -22.245 73.125 -24.625 73.125 C-24.07573121 66.27652202 -22.65131648 60.21869678 -20.5625 53.6875 C-19.92968312 51.66015762 -19.2968708 49.63281381 -18.6640625 47.60546875 C-18.33180664 46.55149902 -17.99955078 45.4975293 -17.65722656 44.41162109 C-15.88945078 38.78300294 -14.16747276 33.14032538 -12.4375 27.5 C-11.48880102 24.41821921 -10.53916149 21.33676682 -9.58447266 18.25683594 C-8.89898684 16.01932651 -8.22843264 13.77722048 -7.56787109 11.53222656 C-7.21934082 10.35885742 -6.87081055 9.18548828 -6.51171875 7.9765625 C-6.19807373 6.90486816 -5.88442871 5.83317383 -5.5612793 4.72900391 C-4.3391392 1.32995664 -3.70365138 0.17636435 0 0 Z " fill="#C4C8D0" transform="translate(427.625,152.875)"/>
<path d="M0 0 C0 0.66 0 1.32 0 2 C0.99 2.33 1.98 2.66 3 3 C1.31326082 7.49797113 -0.81673892 11.72886302 -3 16 C0.77732252 13.943238 3.38451274 11.75298328 6.1875 8.5 C6.86167969 7.7265625 7.53585937 6.953125 8.23046875 6.15625 C10.12333702 3.92229023 10.12333702 3.92229023 12 1 C12.99 1 13.98 1 15 1 C14.67 1.78375 14.34 2.5675 14 3.375 C12.88133489 5.84332497 12.88133489 5.84332497 13 8 C13.61488281 7.4946875 14.22976563 6.989375 14.86328125 6.46875 C16.07564453 5.49421875 16.07564453 5.49421875 17.3125 4.5 C18.51326172 3.52546875 18.51326172 3.52546875 19.73828125 2.53125 C22 1 22 1 25 1 C24.67 2.65 24.34 4.3 24 6 C25.43935902 6.0965873 25.43935902 6.0965873 27.8125 4 C31 2 31 2 35 2 C34.04767238 4.63721495 33.17184804 6.78003451 31.4375 9 C29.76667369 11.32462791 29.39012631 13.19109059 29 16 C30.65 15.67 32.3 15.34 34 15 C33.67 15.66 33.34 16.32 33 17 C31.02 17 29.04 17 27 17 C25.85052105 13.44706507 25.9131063 12.20023331 27.4375 8.6875 C27.953125 7.800625 28.46875 6.91375 29 6 C24.5311365 9.68336255 20.80725856 12.85335931 18 18 C17.34 18 16.68 18 16 18 C16.59104765 13.15340923 17.97944157 9.39251833 20 5 C15.04741286 8.77339973 11.56320845 12.90789714 8 18 C7.01 17.67 6.02 17.34 5 17 C5.33 15.35 5.66 13.7 6 12 C5.62488281 12.44472656 5.24976563 12.88945312 4.86328125 13.34765625 C3.31579372 15.05885782 1.82973974 16.59217672 0 18 C-2.75 18 -2.75 18 -5 17 C-5.66 16.34 -6.32 15.68 -7 15 C-7.556875 15.515625 -8.11375 16.03125 -8.6875 16.5625 C-11 18 -11 18 -13.625 17.8125 C-16 17 -16 17 -18 15 C-18.556875 15.515625 -19.11375 16.03125 -19.6875 16.5625 C-22 18 -22 18 -24.75 17.6875 C-25.4925 17.460625 -26.235 17.23375 -27 17 C-26.21306891 10.31108572 -25.38828242 5.40859471 -20 1 C-19.01 1 -18.02 1 -17 1 C-17.74990841 4.88588904 -19.44697843 7.15311195 -21.84375 10.21875 C-23.09064945 12.13964915 -23.56859327 13.76452874 -24 16 C-20.12503989 13.73173067 -17.39127551 11.45150039 -14.5 8 C-10.44219492 3.2092874 -6.76904002 -0.79635765 0 0 Z " fill="#D2D2D2" transform="translate(315,253)"/>
<path d="M0 0 C3.85026954 2.33200722 6.52844773 4.72768775 8.75390625 8.66796875 C10.05027573 14.13825513 8.81198739 19.00097144 6.078125 23.81640625 C2.05830867 29.43703439 -3.42889217 33.36324118 -10.24609375 34.66796875 C-23.31019178 35.72365344 -23.31019178 35.72365344 -28.24609375 31.66796875 C-29.93558989 32.27445454 -31.60246241 32.94637451 -33.24609375 33.66796875 C-36.05859375 33.29296875 -36.05859375 33.29296875 -38.24609375 32.66796875 C-37.97316274 26.52702095 -37.2732954 22.42738888 -33.24609375 17.66796875 C-32.58609375 17.66796875 -31.92609375 17.66796875 -31.24609375 17.66796875 C-30.25609375 20.30796875 -29.26609375 22.94796875 -28.24609375 25.66796875 C-24.18359205 21.20449286 -20.22127978 16.71818503 -16.55859375 11.91796875 C-11.4045745 5.2446241 -11.4045745 5.2446241 -8.24609375 2.66796875 C-5.43359375 2.35546875 -5.43359375 2.35546875 -3.24609375 2.66796875 C-3.24609375 3.32796875 -3.24609375 3.98796875 -3.24609375 4.66796875 C-4.6796875 6.04296875 -4.6796875 6.04296875 -6.68359375 7.66796875 C-11.69323427 11.92394653 -15.93017505 16.7252898 -20.24609375 21.66796875 C-20.88546875 22.35761719 -21.52484375 23.04726563 -22.18359375 23.7578125 C-23.6161745 25.32635578 -24.94427778 26.98931131 -26.24609375 28.66796875 C-25.91609375 29.65796875 -25.58609375 30.64796875 -25.24609375 31.66796875 C-18.3473966 33.96753447 -11.68691998 32.74383909 -5.24609375 29.66796875 C-0.00381157 26.32183119 3.00230484 22.74705601 4.75390625 16.66796875 C5.40106589 11.96797187 5.43172662 8.78987833 2.94140625 4.66796875 C-1.59028991 0.52470369 -7.5250801 1.20222762 -13.35546875 1.3125 C-18.71676977 1.80233774 -22.93534488 3.44625117 -27.24609375 6.66796875 C-29.53623028 10.10317355 -29.42452348 11.65329975 -29.24609375 15.66796875 C-29.90609375 15.66796875 -30.56609375 15.66796875 -31.24609375 15.66796875 C-32.6904023 12.77935166 -32.62297881 10.87149174 -32.24609375 7.66796875 C-25.12238827 -1.98350319 -10.80338657 -4.43315863 0 0 Z " fill="#D6D6D6" transform="translate(186.24609375,239.33203125)"/>
<path d="M0 0 C1.83884766 -0.03867188 1.83884766 -0.03867188 3.71484375 -0.078125 C7.24401571 0.2677915 8.62179525 0.73133662 11.0625 3.25 C11.5625 5.75 11.5625 5.75 11.0625 8.25 C9.25 10.0625 9.25 10.0625 7.0625 11.25 C6.0725 11.25 5.0825 11.25 4.0625 11.25 C4.0625 10.59 4.0625 9.93 4.0625 9.25 C5.3825 8.92 6.7025 8.59 8.0625 8.25 C7.71805119 5.77733235 7.71805119 5.77733235 7.0625 3.25 C2.36175209 0.89962604 -3.02241887 2.09279311 -7.8125 3.625 C-10.59075359 4.58335228 -11.82417293 5.13667293 -13.9375 7.25 C-14.10437448 9.83354218 -14.10437448 9.83354218 -13.9375 12.25 C-12.88949219 12.51554688 -11.84148437 12.78109375 -10.76171875 13.0546875 C-9.3827352 13.41115944 -8.00383316 13.76794679 -6.625 14.125 C-5.93470703 14.29902344 -5.24441406 14.47304687 -4.53320312 14.65234375 C-1.21874438 15.51698516 1.18528553 16.33185702 4.0625 18.25 C4.60097103 21.48082616 4.84601637 23.1788446 4.0625 26.25 C-0.48485663 32.6106328 -8.00088439 34.52099711 -15.3125 35.875 C-16.17875 35.99875 -17.045 36.1225 -17.9375 36.25 C-19.4225 36.745 -19.4225 36.745 -20.9375 37.25 C-25.4148881 35.88211683 -29.68066828 33.97456404 -32.48046875 30.1328125 C-33.5625 27.9375 -33.5625 27.9375 -34.9375 24.25 C-35.45699219 24.74371094 -35.97648438 25.23742187 -36.51171875 25.74609375 C-37.55779297 26.70708984 -37.55779297 26.70708984 -38.625 27.6875 C-39.30949219 28.32558594 -39.99398437 28.96367187 -40.69921875 29.62109375 C-43.16039422 31.41221098 -44.94566574 31.87798558 -47.9375 32.25 C-48.06125 31.610625 -48.185 30.97125 -48.3125 30.3125 C-48.51875 29.631875 -48.725 28.95125 -48.9375 28.25 C-49.5975 27.92 -50.2575 27.59 -50.9375 27.25 C-50.0403125 26.2290625 -50.0403125 26.2290625 -49.125 25.1875 C-46.70162357 21.93325166 -45.4122599 19.01063775 -43.9375 15.25 C-42.9475 15.58 -41.9575 15.91 -40.9375 16.25 C-41.26234375 17.17232422 -41.26234375 17.17232422 -41.59375 18.11328125 C-41.8721875 18.92152344 -42.150625 19.72976563 -42.4375 20.5625 C-42.7159375 21.36300781 -42.994375 22.16351563 -43.28125 22.98828125 C-44.07683107 25.33769422 -44.07683107 25.33769422 -43.9375 28.25 C-42.64141053 27.31862408 -41.35078368 26.3796434 -40.0625 25.4375 C-39.34320313 24.91542969 -38.62390625 24.39335937 -37.8828125 23.85546875 C-35.70721345 22.21727223 -35.70721345 22.21727223 -33.9375 19.25 C-33.85844936 16.91800612 -33.84951231 14.58167378 -33.9375 12.25 C-32.9475 12.58 -31.9575 12.91 -30.9375 13.25 C-30.9375 15.23 -30.9375 17.21 -30.9375 19.25 C-29.6175 19.58 -28.2975 19.91 -26.9375 20.25 C-26.73253906 21.10464844 -26.52757812 21.95929688 -26.31640625 22.83984375 C-26.04699219 23.94457031 -25.77757812 25.04929687 -25.5 26.1875 C-25.23316406 27.28964844 -24.96632812 28.39179688 -24.69140625 29.52734375 C-24.20754275 32.14421254 -24.20754275 32.14421254 -22.9375 33.25 C-15.78780454 33.81743615 -10.24930778 32.74524839 -3.9375 29.25 C-1.18979728 26.9711176 -1.18979728 26.9711176 0.0625 24.25 C-0.30659231 22.12648298 -0.30659231 22.12648298 -0.9375 20.25 C-1.98550781 19.99605469 -3.03351563 19.74210937 -4.11328125 19.48046875 C-5.49232599 19.13336225 -6.87122478 18.78567556 -8.25 18.4375 C-8.94029297 18.27185547 -9.63058594 18.10621094 -10.34179688 17.93554688 C-16.92784 16.2492653 -16.92784 16.2492653 -18.9375 13.25 C-19.125 10.4375 -19.125 10.4375 -17.9375 7.25 C-12.37277086 1.89596216 -7.70523282 0.09702287 0 0 Z " fill="#CECECE" transform="translate(256.9375,238.75)"/>
<path d="M0 0 C1.59908203 0.16435547 1.59908203 0.16435547 3.23046875 0.33203125 C13.3048616 1.64501546 13.3048616 1.64501546 17 6 C17 6.99 17 7.98 17 9 C14.03 9 11.06 9 8 9 C8 8.01 8 7.02 8 6 C7.23816406 6.56589844 6.47632813 7.13179687 5.69140625 7.71484375 C-5.69997038 15.80684538 -5.69997038 15.80684538 -13 15 C-18.35207291 13.91512036 -23.61470246 12.36206144 -28 9 C-28 8.34 -28 7.68 -28 7 C-18.55447251 2.30120967 -10.78825054 -1.35765535 0 0 Z " fill="#E6C8AD" transform="translate(343,233)"/>
<path d="M0 0 C-0.33 2.64 -0.66 5.28 -1 8 C-2.73636719 8.39832031 -2.73636719 8.39832031 -4.5078125 8.8046875 C-6.04690993 9.16130764 -7.58597048 9.51808691 -9.125 9.875 C-10.26582031 10.13603516 -10.26582031 10.13603516 -11.4296875 10.40234375 C-15.70725424 11.39798428 -19.85405809 12.52971389 -24 14 C-24.5775 13.195625 -25.155 12.39125 -25.75 11.5625 C-28.34101624 8.57477791 -28.34101624 8.57477791 -32 8 C-34.38125285 9.31160932 -34.38125285 9.31160932 -36.75 11.125 C-41.31084871 14.0753413 -41.31084871 14.0753413 -44.4296875 13.734375 C-46.625 12.875 -46.625 12.875 -50 11 C-50 10.34 -50 9.68 -50 9 C-33.80246438 2.45662468 -17.48683435 -0.87922631 0 0 Z " fill="#008EA8" transform="translate(255,108)"/>
<path d="M0 0 C1.5078125 2.1171875 1.5078125 2.1171875 3.125 4.875 C3.66382813 5.77992187 4.20265625 6.68484375 4.7578125 7.6171875 C6 10 6 10 6 12 C4.76256846 13.06107551 3.48394602 14.0743979 2.1875 15.0625 C-2.26767803 18.80011838 -3.78160775 22.40301059 -5 28 C-7.375 27.8125 -7.375 27.8125 -10 27 C-12.65729505 21.84921576 -12.66710353 16.66204118 -12 11 C-9.9851687 6.81535037 -5.19585927 0 0 0 Z " fill="#AC7543" transform="translate(272,100)"/>
<path d="M0 0 C13.53 0 27.06 0 41 0 C41 2.31 41 4.62 41 7 C29.12 7 17.24 7 5 7 C4.34 5.68 3.68 4.36 3 3 C2.01 2.01 1.02 1.02 0 0 Z " fill="#969DA6" transform="translate(352,248)"/>
<path d="M0 0 C10.56 0 21.12 0 32 0 C32 2.31 32 4.62 32 7 C21.44 7 10.88 7 0 7 C0 4.69 0 2.38 0 0 Z " fill="#969DA7" transform="translate(412,248)"/>
<path d="M0 0 C0.721875 0.103125 1.44375 0.20625 2.1875 0.3125 C2.1875 0.9725 2.1875 1.6325 2.1875 2.3125 C0.75390625 3.6875 0.75390625 3.6875 -1.25 5.3125 C-7.6081005 10.71407211 -12.92613642 17.03850096 -18.25 23.4375 C-19.095625 24.38625 -19.94125 25.335 -20.8125 26.3125 C-21.4725 26.3125 -22.1325 26.3125 -22.8125 26.3125 C-22.8125 26.9725 -22.8125 27.6325 -22.8125 28.3125 C-25.63019349 30.48614926 -27.0315681 31.39927021 -30.625 31 C-31.346875 30.773125 -32.06875 30.54625 -32.8125 30.3125 C-32.53956899 24.1715522 -31.83970165 20.07192013 -27.8125 15.3125 C-27.1525 15.3125 -26.4925 15.3125 -25.8125 15.3125 C-24.8225 17.9525 -23.8325 20.5925 -22.8125 23.3125 C-18.7499983 18.84902411 -14.78768603 14.36271628 -11.125 9.5625 C-4.09063697 0.45451522 -4.09063697 0.45451522 0 0 Z " fill="#E6E6E6" transform="translate(180.8125,241.6875)"/>
<path d="M0 0 C1.83884766 -0.03867188 1.83884766 -0.03867188 3.71484375 -0.078125 C7.24401571 0.2677915 8.62179525 0.73133662 11.0625 3.25 C11.5625 5.75 11.5625 5.75 11.0625 8.25 C9.25 10.0625 9.25 10.0625 7.0625 11.25 C6.0725 11.25 5.0825 11.25 4.0625 11.25 C4.0625 10.59 4.0625 9.93 4.0625 9.25 C5.3825 8.92 6.7025 8.59 8.0625 8.25 C7.71805119 5.77733235 7.71805119 5.77733235 7.0625 3.25 C2.36175209 0.89962604 -3.02241887 2.09279311 -7.8125 3.625 C-10.59075359 4.58335228 -11.82417293 5.13667293 -13.9375 7.25 C-14.10437448 9.83354218 -14.10437448 9.83354218 -13.9375 12.25 C-12.36548828 12.64832031 -12.36548828 12.64832031 -10.76171875 13.0546875 C-9.3827352 13.41115944 -8.00383316 13.76794679 -6.625 14.125 C-5.93470703 14.29902344 -5.24441406 14.47304687 -4.53320312 14.65234375 C-1.21874438 15.51698516 1.18528553 16.33185702 4.0625 18.25 C4.88735876 23.19915254 4.88735876 23.19915254 4.0625 26.25 C2.00995153 28.68038077 -0.30632478 30.47798404 -2.9375 32.25 C-3.5975 31.92 -4.2575 31.59 -4.9375 31.25 C-4.56496094 30.79109375 -4.19242188 30.3321875 -3.80859375 29.859375 C-3.33550781 29.24578125 -2.86242187 28.6321875 -2.375 28 C-1.89933594 27.39671875 -1.42367187 26.7934375 -0.93359375 26.171875 C0.29139098 24.27188446 0.29139098 24.27188446 -0.28515625 22.015625 C-0.50042969 21.43296875 -0.71570313 20.8503125 -0.9375 20.25 C-2.50951172 19.86908203 -2.50951172 19.86908203 -4.11328125 19.48046875 C-5.49232599 19.13336225 -6.87122478 18.78567556 -8.25 18.4375 C-8.94029297 18.27185547 -9.63058594 18.10621094 -10.34179688 17.93554688 C-16.92784 16.2492653 -16.92784 16.2492653 -18.9375 13.25 C-19.125 10.4375 -19.125 10.4375 -17.9375 7.25 C-12.37277086 1.89596216 -7.70523282 0.09702287 0 0 Z " fill="#E5E5E5" transform="translate(256.9375,238.75)"/>
<path d="M0 0 C4.875 1.75 4.875 1.75 6 4 C3.58203461 7.28152446 1.81334672 9.5007281 -2 11 C-4.29003906 11.22705078 -4.29003906 11.22705078 -6.765625 11.1953125 C-7.65507812 11.18886719 -8.54453125 11.18242187 -9.4609375 11.17578125 C-10.38132812 11.15902344 -11.30171875 11.14226562 -12.25 11.125 C-13.18585938 11.11597656 -14.12171875 11.10695312 -15.0859375 11.09765625 C-17.39088657 11.07413636 -19.6953116 11.04126853 -22 11 C-22 9.02 -22 7.04 -22 5 C-20.35451172 4.92652344 -20.35451172 4.92652344 -18.67578125 4.8515625 C-17.22133075 4.77649409 -15.76690484 4.70094803 -14.3125 4.625 C-13.2306543 4.57859375 -13.2306543 4.57859375 -12.12695312 4.53125 C-8.06552689 4.3087061 -4.66326467 3.94720378 -1 2 C-0.67 1.34 -0.34 0.68 0 0 Z " fill="#070605" transform="translate(326,174)"/>
<path d="M0 0 C3.16115776 1.36983503 3.9927092 1.9890638 6 5 C6.265625 7.77734375 6.265625 7.77734375 6.25 10.9375 C6.25515625 11.97777344 6.2603125 13.01804687 6.265625 14.08984375 C6.00629936 16.93098495 5.46519702 18.58707634 4 21 C2.68 21 1.36 21 0 21 C-0.25394531 20.40832031 -0.50789063 19.81664063 -0.76953125 19.20703125 C-2.61781335 14.96359706 -4.48318405 10.90106471 -7 7 C-5.47005208 5.76302083 -3.94010417 4.52604167 -2.41015625 3.2890625 C-0.86733563 2.0333609 -0.86733563 2.0333609 0 0 Z " fill="#AD7544" transform="translate(361,107)"/>
<path d="M0 0 C2.6875 0.3125 2.6875 0.3125 5 1 C5.90417041 3.99275118 6.24763066 5.45791397 4.92578125 8.3515625 C4.39339844 9.10179687 3.86101562 9.85203125 3.3125 10.625 C2.79300781 11.38039063 2.27351563 12.13578125 1.73828125 12.9140625 C-0.0328693 15.03944316 -1.64377986 16.55254071 -4 18 C-6.75 17.6875 -6.75 17.6875 -9 17 C-9.47357886 13.84280757 -9.41726456 11.70338883 -7.76953125 8.92578125 C-6.24057222 6.88339401 -4.68146166 4.91874822 -3 3 C-2.4946875 2.41992188 -1.989375 1.83984375 -1.46875 1.2421875 C-0.9840625 0.83226562 -0.499375 0.42234375 0 0 Z " fill="#E2E2E2" transform="translate(272,253)"/>
<path d="M0 0 C3.58975819 1.42094595 4.62176495 2.22551871 6.3125 5.6875 C6.6528125 6.8321875 6.6528125 6.8321875 7 8 C4 10 4 10 1.9375 9.75 C0 9 0 9 -2 7 C-4.95788569 6.5832448 -4.95788569 6.5832448 -8 7 C-8.515625 7.515625 -9.03125 8.03125 -9.5625 8.5625 C-10.036875 9.036875 -10.51125 9.51125 -11 10 C-13.6875 9.6875 -13.6875 9.6875 -16 9 C-16.33 8.01 -16.66 7.02 -17 6 C-11.25007969 0.098766 -8.12819746 -0.7040171 0 0 Z " fill="#04090B" transform="translate(344,141)"/>
<path d="M0 0 C5.4939759 2.69879518 5.4939759 2.69879518 6.875 6.25 C6.91625 6.8275 6.9575 7.405 7 8 C4 10 4 10 1 10 C0.566875 9.505 0.13375 9.01 -0.3125 8.5 C-2.00321891 6.71190722 -2.00321891 6.71190722 -5 6.625 C-8.00913602 6.68937528 -8.00913602 6.68937528 -9.5625 8.5625 C-10.036875 9.036875 -10.51125 9.51125 -11 10 C-13.6875 9.6875 -13.6875 9.6875 -16 9 C-16 5 -16 5 -13.625 2.25 C-9.44488817 -0.94946948 -5.03763999 -0.88995585 0 0 Z " fill="#030708" transform="translate(293,141)"/>
<path d="M0 0 C0 0.66 0 1.32 0 2 C-1.19625 2.515625 -2.3925 3.03125 -3.625 3.5625 C-9.57761495 6.52825319 -13.20439769 11.04301565 -16 17 C-16.66 16.34 -17.32 15.68 -18 15 C-18.556875 15.515625 -19.11375 16.03125 -19.6875 16.5625 C-22 18 -22 18 -24.75 17.6875 C-25.4925 17.460625 -26.235 17.23375 -27 17 C-26.21306891 10.31108572 -25.38828242 5.40859471 -20 1 C-19.01 1 -18.02 1 -17 1 C-17.74990841 4.88588904 -19.44697843 7.15311195 -21.84375 10.21875 C-23.09064945 12.13964915 -23.56859327 13.76452874 -24 16 C-20.12503989 13.73173067 -17.39127551 11.45150039 -14.5 8 C-10.44219492 3.2092874 -6.76904002 -0.79635765 0 0 Z " fill="#C9C9C9" transform="translate(315,253)"/>
<path d="M0 0 C6.27 0 12.54 0 19 0 C19 2.31 19 4.62 19 7 C12.73 7 6.46 7 0 7 C0 4.69 0 2.38 0 0 Z " fill="#19191A" transform="translate(393,134)"/>
<path d="M0 0 C3.00184037 0.09618038 5.9975396 0.05887177 9 0 C8.40075776 4.19469571 7.42500059 8.00999834 6 12 C5.27554687 11.60167969 4.55109375 11.20335937 3.8046875 10.79296875 C-1.09133453 8.10994868 -5.97918814 5.44255712 -11 3 C-10 1 -10 1 -7.75 -0.1875 C-4.56260871 -1.12922925 -3.20874373 -0.72925994 0 0 Z " fill="#0090AA" transform="translate(262,277)"/>
<path d="M0 0 C-0.33 1.65 -0.66 3.3 -1 5 C0.43935902 5.0965873 0.43935902 5.0965873 2.8125 3 C6 1 6 1 10 1 C9.04767238 3.63721495 8.17184804 5.78003451 6.4375 8 C4.76667369 10.32462791 4.39012631 12.19109059 4 15 C5.65 14.67 7.3 14.34 9 14 C8.67 14.66 8.34 15.32 8 16 C6.02 16 4.04 16 2 16 C0.85052105 12.44706507 0.9131063 11.20023331 2.4375 7.6875 C2.953125 6.800625 3.46875 5.91375 4 5 C-0.4688635 8.68336255 -4.19274144 11.85335931 -7 17 C-7.66 17 -8.32 17 -9 17 C-8.40895235 12.15340923 -7.02055843 8.39251833 -5 4 C-5.66 3.67 -6.32 3.34 -7 3 C-3.375 0 -3.375 0 0 0 Z " fill="#EDEDED" transform="translate(340,254)"/>
<path d="M0 0 C6.39413423 1.69256494 9.67163233 6.74177495 12.875 12.1875 C14 15 14 15 14 19 C12.02 19 10.04 19 8 19 C6.84973914 16.58535319 5.70467795 14.16846682 4.5625 11.75 C4.23701172 11.06808594 3.91152344 10.38617188 3.57617188 9.68359375 C3.26357422 9.01972656 2.95097656 8.35585937 2.62890625 7.671875 C2.1968689 6.76066895 2.1968689 6.76066895 1.75610352 5.83105469 C0.96329541 3.91111254 0.45524597 2.0241838 0 0 Z " fill="#ECC968" transform="translate(327,208)"/>
<path d="M0 0 C6.27 0 12.54 0 19 0 C19 1.98 19 3.96 19 6 C12.73 6 6.46 6 0 6 C0 4.02 0 2.04 0 0 Z " fill="#000001" transform="translate(393,122)"/>
<path d="M0 0 C6.27 0 12.54 0 19 0 C19 1.98 19 3.96 19 6 C12.73 6 6.46 6 0 6 C0 4.02 0 2.04 0 0 Z " fill="#000001" transform="translate(393,109)"/>
<path d="M0 0 C0.66 0 1.32 0 2 0 C2.66 2.64 3.32 5.28 4 8 C3.34 8 2.68 8 2 8 C2.33 9.98 2.66 11.96 3 14 C0 16 0 16 -2.6875 15.625 C-3.450625 15.41875 -4.21375 15.2125 -5 15 C-4.72706899 8.8590522 -4.02720165 4.75942013 0 0 Z " fill="#DCDCDC" transform="translate(153,257)"/>
<path d="M0 0 C-1.35723237 3.94576832 -3.10732377 6.63766975 -5.875 9.75 C-6.55304688 10.52859375 -7.23109375 11.3071875 -7.9296875 12.109375 C-10.04005445 14.03657803 -11.21052826 14.62473474 -14 15 C-14 11.07488565 -13.88776626 8.99312753 -11.22265625 6.01171875 C-4.33967391 0 -4.33967391 0 0 0 Z " fill="#111111" transform="translate(315,255)"/>
<path d="M0 0 C0.99 0.33 1.98 0.66 3 1 C2.67515625 1.92232422 2.67515625 1.92232422 2.34375 2.86328125 C2.0653125 3.67152344 1.786875 4.47976563 1.5 5.3125 C1.2215625 6.11300781 0.943125 6.91351563 0.65625 7.73828125 C-0.13933107 10.08769422 -0.13933107 10.08769422 0 13 C0.55429688 12.57847656 1.10859375 12.15695312 1.6796875 11.72265625 C2.76636719 10.90087891 2.76636719 10.90087891 3.875 10.0625 C4.59429687 9.51722656 5.31359375 8.97195313 6.0546875 8.41015625 C8 7 8 7 10 6 C8.5328827 9.55736507 6.6293581 11.44195167 3.625 13.8125 C2.85414063 14.43769531 2.08328125 15.06289063 1.2890625 15.70703125 C-1 17 -1 17 -3.2890625 16.69921875 C-3.85367188 16.46847656 -4.41828125 16.23773438 -5 16 C-5 15.01 -5 14.02 -5 13 C-5.66 12.67 -6.32 12.34 -7 12 C-6.401875 11.319375 -5.80375 10.63875 -5.1875 9.9375 C-2.76412357 6.68325166 -1.4747599 3.76063775 0 0 Z " fill="#E8E8E8" transform="translate(213,254)"/>
<path d="M0 0 C0.6875 1.8125 0.6875 1.8125 1 4 C-0.4375 5.75 -0.4375 5.75 -2 7 C-2.66 6.67 -3.32 6.34 -4 6 C-3.01 4.35 -2.02 2.7 -1 1 C-4.72114571 3.31537955 -7.61229661 5.28579473 -10 9 C-9.34 9.33 -8.68 9.66 -8 10 C-9.32 10 -10.64 10 -12 10 C-12 11.65 -12 13.3 -12 15 C-10.906875 14.67 -9.81375 14.34 -8.6875 14 C-5 13 -5 13 -2 13 C-7.16923077 17.06153846 -7.16923077 17.06153846 -11.375 16.75 C-12.24125 16.5025 -13.1075 16.255 -14 16 C-14.75390625 13.3359375 -14.75390625 13.3359375 -15 10 C-13.33984375 7.2265625 -13.33984375 7.2265625 -10.9375 4.625 C-10.16277344 3.75101562 -9.38804687 2.87703125 -8.58984375 1.9765625 C-5.47171174 -0.40318832 -3.83048185 -0.41140153 0 0 Z " fill="#E0E0E0" transform="translate(208,255)"/>
<path d="M0 0 C0.66 0 1.32 0 2 0 C1.67 0.78375 1.34 1.5675 1 2.375 C-0.11866511 4.84332497 -0.11866511 4.84332497 0 7 C1.32 5.68 2.64 4.36 4 3 C4.66 3.33 5.32 3.66 6 4 C2.37 7.96 -1.26 11.92 -5 16 C-5.66 15.67 -6.32 15.34 -7 15 C-7 13.68 -7 12.36 -7 11 C-7.66 10.67 -8.32 10.34 -9 10 C-7.5484451 8.32742645 -6.08855591 6.66208242 -4.625 5 C-3.81289063 4.071875 -3.00078125 3.14375 -2.1640625 2.1875 C-1.44992187 1.465625 -0.73578125 0.74375 0 0 Z " fill="#CDCDCD" transform="translate(285,255)"/>
<path d="M0 0 C1.83884766 -0.03867188 1.83884766 -0.03867188 3.71484375 -0.078125 C7.24401571 0.2677915 8.62179525 0.73133662 11.0625 3.25 C11.5625 5.75 11.5625 5.75 11.0625 8.25 C9.25 10.0625 9.25 10.0625 7.0625 11.25 C6.0725 11.25 5.0825 11.25 4.0625 11.25 C4.0625 10.59 4.0625 9.93 4.0625 9.25 C5.3825 8.92 6.7025 8.59 8.0625 8.25 C7.71805119 5.77733235 7.71805119 5.77733235 7.0625 3.25 C2.36175209 0.89962604 -3.02241887 2.09279311 -7.8125 3.625 C-11.3779776 4.85490342 -13.24196192 5.93620585 -15.0625 9.375 C-15.35125 9.99375 -15.64 10.6125 -15.9375 11.25 C-15.9375 10.26 -15.9375 9.27 -15.9375 8.25 C-16.5975 7.92 -17.2575 7.59 -17.9375 7.25 C-16.67049277 6.2658875 -15.3987381 5.28788503 -14.125 4.3125 C-13.41730469 3.76722656 -12.70960938 3.22195312 -11.98046875 2.66015625 C-8.10212795 -0.01686292 -4.59382196 0.05784456 0 0 Z " fill="#DBDBDB" transform="translate(256.9375,238.75)"/>
<path d="M0 0 C4 1 4 1 6 3 C6.375 6.4375 6.375 6.4375 6 10 C4.125 11.9375 4.125 11.9375 2 13 C1.34 13 0.68 13 0 13 C0 8.71 0 4.42 0 0 Z " fill="#D8BBA2" transform="translate(361,134)"/>
<path d="M0 0 C0 4.29 0 8.58 0 13 C-5 11 -5 11 -6 10 C-6.3125 6.625 -6.3125 6.625 -6 3 C-3.96080228 0.89282902 -2.95416573 0 0 0 Z " fill="#E5C6AB" transform="translate(266,134)"/>
<path d="M0 0 C1.32 0.33 2.64 0.66 4 1 C3.49822465 5.34871974 0.97477985 7.95603922 -2 11 C-3.32 11 -4.64 11 -6 11 C-5.55530671 5.96014269 -3.28656638 3.62365012 0 0 Z " fill="#0F0F0F" transform="translate(271,258)"/>
<path d="M0 0 C0.99 0.33 1.98 0.66 3 1 C3 2.98 3 4.96 3 7 C4.32 7.33 5.64 7.66 7 8 C6.67 8.66 6.34 9.32 6 10 C5.84651357 13.53018797 5.95854754 16.61527952 7 20 C3.125 17.375 3.125 17.375 2 14 C1.01 14.495 1.01 14.495 0 15 C0 10.05 0 5.1 0 0 Z " fill="#BCBCBC" transform="translate(223,251)"/>
<path d="M0 0 C0 0.66 0 1.32 0 2 C-1.19625 2.515625 -2.3925 3.03125 -3.625 3.5625 C-9.57761495 6.52825319 -13.20439769 11.04301565 -16 17 C-16.66 15.35 -17.32 13.7 -18 12 C-7.4375 -0.875 -7.4375 -0.875 0 0 Z " fill="#D9D9D9" transform="translate(315,253)"/>
<path d="M0 0 C-3.42962218 2.28641478 -6.99608899 3.93796239 -10.72265625 5.68359375 C-13.27707565 6.93595695 -13.27707565 6.93595695 -15 10 C-15.16699232 13.12521833 -15.16699232 13.12521833 -15 16 C-15.66 16 -16.32 16 -17 16 C-18.44430855 13.11138291 -18.37688506 11.20352299 -18 8 C-13.05423799 1.74506569 -7.87987583 -0.47279255 0 0 Z " fill="#E3E3E3" transform="translate(172,239)"/>
<path d="M0 0 C2.31 0 4.62 0 7 0 C7 2.31 7 4.62 7 7 C4.69 7 2.38 7 0 7 C0 4.69 0 2.38 0 0 Z " fill="#2B2C2C" transform="translate(431,134)"/>
<path d="M0 0 C2.31 0 4.62 0 7 0 C7 2.31 7 4.62 7 7 C4.69 7 2.38 7 0 7 C0 4.69 0 2.38 0 0 Z " fill="#242425" transform="translate(431,121)"/>
<path d="M0 0 C-0.66498383 4.38889325 -2.18757677 7.9811485 -4 12 C-4.66 12 -5.32 12 -6 12 C-7.41990291 5.05825243 -7.41990291 5.05825243 -6 2 C-3.85331506 0.61504198 -2.56128588 0 0 0 Z " fill="#008EA8" transform="translate(339,329)"/>
<path d="M0 0 C1.32 0.66 2.64 1.32 4 2 C2.68 2 1.36 2 0 2 C0 3.65 0 5.3 0 7 C1.093125 6.67 2.18625 6.34 3.3125 6 C7 5 7 5 10 5 C4.83076923 9.06153846 4.83076923 9.06153846 0.625 8.75 C-0.674375 8.37875 -0.674375 8.37875 -2 8 C-2.33 6.02 -2.66 4.04 -3 2 C-2.01 1.34 -1.02 0.68 0 0 Z " fill="#C7C7C7" transform="translate(196,263)"/>
<path d="M0 0 C5.445 1.485 5.445 1.485 11 3 C10.67 3.66 10.34 4.32 10 5 C7.71484375 5.4140625 7.71484375 5.4140625 4.9375 5.625 C4.01839844 5.69976562 3.09929687 5.77453125 2.15234375 5.8515625 C1.08693359 5.92503906 1.08693359 5.92503906 0 6 C0 4.02 0 2.04 0 0 Z " fill="#0089A2" transform="translate(237,260)"/>
<path d="M0 0 C-0.59730356 3.34489996 -1.57917355 5.57917355 -4 8 C-6.6875 8.25 -6.6875 8.25 -9 8 C-7.47364599 4.11473526 -4.49771687 0 0 0 Z " fill="#484848" transform="translate(207,256)"/>
<path d="M0 0 C2.38672669 2.96283313 4.7353371 5.94270509 7 9 C5.35 9 3.7 9 2 9 C2 9.66 2 10.32 2 11 C1.34 11 0.68 11 0 11 C0 7.37 0 3.74 0 0 Z " fill="#00788E" transform="translate(217,187)"/>
<path d="M0 0 C1.98 0 3.96 0 6 0 C6 1.98 6 3.96 6 6 C4.02 6 2.04 6 0 6 C0 4.02 0 2.04 0 0 Z " fill="#080808" transform="translate(431,109)"/>
<path d="M0 0 C0.33 0 0.66 0 1 0 C2.34721372 7.47091243 2.34721372 7.47091243 0.6875 10 C-1 11 -1 11 -3 11 C-3.32434322 6.35108046 -2.776422 3.77593392 0 0 Z " fill="#171717" transform="translate(153,261)"/>
<path d="M0 0 C-0.47202486 4.24822374 -2.96655518 6.19989709 -6 9 C-6.75 6.75 -6.75 6.75 -7 4 C-4.69139139 0.94933862 -3.89789797 0 0 0 Z " fill="#E8E8E8" transform="translate(298,254)"/>
<path d="M0 0 C1.32 0.33 2.64 0.66 4 1 C3.0409375 2.3921875 3.0409375 2.3921875 2.0625 3.8125 C-0.08622093 6.84219943 -0.08622093 6.84219943 -1 10 C-1.99 9.67 -2.98 9.34 -4 9 C-2.80100302 5.9168649 -1.52299523 2.93720508 0 0 Z " fill="#242424" transform="translate(278,257)"/>
<path d="M0 0 C0.8971875 0.5259375 0.8971875 0.5259375 1.8125 1.0625 C1.18601563 1.25585938 0.55953125 1.44921875 -0.0859375 1.6484375 C-0.90320313 1.90882813 -1.72046875 2.16921875 -2.5625 2.4375 C-3.78066406 2.82035156 -3.78066406 2.82035156 -5.0234375 3.2109375 C-8.54371571 4.59617333 -9.65271745 6.77368025 -11.1875 10.0625 C-11.1875 9.0725 -11.1875 8.0825 -11.1875 7.0625 C-11.8475 6.7325 -12.5075 6.4025 -13.1875 6.0625 C-11.92049277 5.0783875 -10.6487381 4.10038503 -9.375 3.125 C-8.66730469 2.57972656 -7.95960938 2.03445312 -7.23046875 1.47265625 C-4.54808553 -0.37885492 -3.1090418 -1.33244649 0 0 Z " fill="#C8C8C8" transform="translate(252.1875,239.9375)"/>
<path d="M0 0 C0.99 0.33 1.98 0.66 3 1 C2.04578192 2.14926266 1.08647955 3.29430541 0.125 4.4375 C-0.40867187 5.07558594 -0.94234375 5.71367187 -1.4921875 6.37109375 C-3 8 -3 8 -5 9 C-5.3125 6.75 -5.3125 6.75 -5 4 C-2.6875 1.625 -2.6875 1.625 0 0 Z " fill="#008097" transform="translate(322,354)"/>
<path d="M0 0 C3.81684226 1.55500981 6.19195732 4.03595495 9 7 C3.49411765 6.51058824 3.49411765 6.51058824 1.125 4.0625 C0 2 0 2 0 0 Z " fill="#00859D" transform="translate(227,199)"/>
<path d="M0 0 C0.66 0.33 1.32 0.66 2 1 C1.21625 1.9075 0.4325 2.815 -0.375 3.75 C-2.30052496 6.05190236 -3.82205741 8.21577207 -5 11 C-5.66 9.35 -6.32 7.7 -7 6 C-4.69 4.02 -2.38 2.04 0 0 Z " fill="#F0F0F0" transform="translate(304,259)"/>
<path d="M0 0 C0.99 0.33 1.98 0.66 3 1 C1.9802693 4.77300358 1.34127338 5.80206144 -2.125 7.8125 C-3.07375 8.204375 -4.0225 8.59625 -5 9 C-3.50163895 5.88801935 -1.80066242 2.9465385 0 0 Z " fill="#E6E6E6" transform="translate(315,255)"/>
<path d="M0 0 C0.99 0.33 1.98 0.66 3 1 C2.67 2.65 2.34 4.3 2 6 C3.65 5.67 5.3 5.34 7 5 C6.67 5.66 6.34 6.32 6 7 C4.02 7 2.04 7 0 7 C-1.125 2.25 -1.125 2.25 0 0 Z " fill="#CDCDCD" transform="translate(342,263)"/>
<path d="M0 0 C2.3129482 2.3129482 2.49580975 3.47904875 3.125 6.625 C3.29257813 7.44226563 3.46015625 8.25953125 3.6328125 9.1015625 C3.81457031 10.04128906 3.81457031 10.04128906 4 11 C2.0625 9.9375 2.0625 9.9375 0 8 C-0.8125 4.375 -0.8125 4.375 -1 1 C-0.67 0.67 -0.34 0.34 0 0 Z " fill="#141414" transform="translate(226,260)"/>
<path d="M0 0 C0.99 0.33 1.98 0.66 3 1 C3.33 2.65 3.66 4.3 4 6 C2.68 6 1.36 6 0 6 C0 5.34 0 4.68 0 4 C-0.99 3.67 -1.98 3.34 -3 3 C-2.01 2.01 -1.02 1.02 0 0 Z " fill="#F4F4F4" transform="translate(274,253)"/>
<path d="M0 0 C0.66 0.33 1.32 0.66 2 1 C1.34 1.66 0.68 2.32 0 3 C0.66 3.66 1.32 4.32 2 5 C-3.75 8 -3.75 8 -6 8 C-4.55746343 4.63408134 -2.66735273 2.48952921 0 0 Z " fill="#DADADA" transform="translate(272,253)"/>
<path d="M0 0 C0 3 0 3 -1.6796875 4.82421875 C-2.40414062 5.43910156 -3.12859375 6.05398438 -3.875 6.6875 C-4.59429687 7.31011719 -5.31359375 7.93273437 -6.0546875 8.57421875 C-8 10 -8 10 -10 10 C-8.84172638 6.52517915 -7.911812 5.94446638 -5 3.875 C-2.38851475 2.06989989 -2.38851475 2.06989989 0 0 Z " fill="#D8D8D8" transform="translate(222,260)"/>
<path d="M0 0 C2 3 2 3 2 6 C3.98 4.35 5.96 2.7 8 1 C7.67 2.65 7.34 4.3 7 6 C5.0085944 6.38133299 3.00720923 6.71325582 1 7 C0 6 0 6 -0.0625 2.9375 C-0.041875 1.968125 -0.02125 0.99875 0 0 Z " fill="#CCCCCC" transform="translate(148,266)"/>
<path d="M0 0 C0.66 0.99 1.32 1.98 2 3 C1.34 4.32 0.68 5.64 0 7 C-0.99 7 -1.98 7 -3 7 C-2.25 2.25 -2.25 2.25 0 0 Z " fill="#F5F5F5" transform="translate(281,263)"/>
<path d="M0 0 C0.99 0.33 1.98 0.66 3 1 C2.34 3.31 1.68 5.62 1 8 C0.01 7.67 -0.98 7.34 -2 7 C-1.125 2.25 -1.125 2.25 0 0 Z " fill="#DEDEDE" transform="translate(213,254)"/>
<path d="M0 0 C0.268125 0.556875 0.53625 1.11375 0.8125 1.6875 C2.10128679 4.1972427 3.53946726 6.5869459 5 9 C5.33 9.66 5.66 10.32 6 11 C4.125 10.6875 4.125 10.6875 2 10 C-0.4294516 6.3558226 -0.16179575 4.28758728 0 0 Z " fill="#DFDFDF" transform="translate(224,261)"/>
<path d="M0 0 C1.32 0 2.64 0 4 0 C3 2 2 4 1 6 C0.01 5.67 -0.98 5.34 -2 5 C-1.34 3.35 -0.68 1.7 0 0 Z " fill="#ECECEC" transform="translate(322,265)"/>
<path d="M0 0 C0.66 0.33 1.32 0.66 2 1 C0.8553125 1.8971875 0.8553125 1.8971875 -0.3125 2.8125 C-2.91335259 4.84004112 -2.91335259 4.84004112 -4.6875 6.75 C-6 8 -6 8 -8 8 C-6.88333826 4.65001479 -6.25305075 4.20659778 -3.4375 2.3125 C-2.79683594 1.87550781 -2.15617187 1.43851562 -1.49609375 0.98828125 C-1.00238281 0.66214844 -0.50867188 0.33601563 0 0 Z " fill="#BBBBBB" transform="translate(332,258)"/>
<path d="M0 0 C0 3.57870074 -0.64872567 4.39680342 -3 7 C-5.1875 8.25 -5.1875 8.25 -7 9 C-5.44499019 5.18315774 -2.96404505 2.80804268 0 0 Z " fill="#202020" transform="translate(291,258)"/>
<path d="M0 0 C0.66 0.66 1.32 1.32 2 2 C0.0170177 3.9829823 -1.51218307 4.79378573 -4 6 C-4.99 6.66 -5.98 7.32 -7 8 C-7.33 7.34 -7.66 6.68 -8 6 C-5.36 4.02 -2.72 2.04 0 0 Z " fill="#A7A7A7" transform="translate(344,256)"/>
<path d="M0 0 C-0.33 1.65 -0.66 3.3 -1 5 C-3.97 4.505 -3.97 4.505 -7 4 C-3.375 0 -3.375 0 0 0 Z " fill="#E1E1E1" transform="translate(340,254)"/>
<path d="M0 0 C-0.6875 2.375 -0.6875 2.375 -2 5 C-4.625 6.3125 -4.625 6.3125 -7 7 C-3.86206897 0 -3.86206897 0 0 0 Z " fill="#E9E9E9" transform="translate(287,255)"/>
<path d="M0 0 C0.66 0 1.32 0 2 0 C1.8125 1.8125 1.8125 1.8125 1 4 C-1.5625 5.75 -1.5625 5.75 -4 7 C-2.79618552 4.50638429 -1.54571278 2.31856917 0 0 Z " fill="#1E1E1E" transform="translate(205,256)"/>
</svg>
